<svg xmlns="http://www.w3.org/2000/svg" viewBox="0 0 512 512">
  <defs>
    <linearGradient id="bg" x1="0%" y1="0%" x2="100%" y2="100%">
      <stop offset="0%" stop-color="#f18c42" />
      <stop offset="100%" stop-color="#8d2f24" />
    </linearGradient>
    <linearGradient id="plate" x1="0%" y1="0%" x2="100%" y2="100%">
      <stop offset="0%" stop-color="#fff3e2" />
      <stop offset="100%" stop-color="#f5d4ab" />
    </linearGradient>
  </defs>
  <rect width="512" height="512" rx="112" fill="#111111" />
  <rect x="44" y="44" width="424" height="424" rx="96" fill="url(#bg)" opacity="0.9" />
  <rect x="118" y="112" width="276" height="288" rx="32" fill="#111111" opacity="0.94" />
  <rect x="150" y="148" width="212" height="108" rx="18" fill="url(#plate)" />
  <circle cx="204" cy="202" r="28" fill="#111111" />
  <path
    d="M162 332c28-48 60-72 96-72 34 0 66 18 92 52l32 42H130l32-22z"
    fill="#f18c42"
  />
  <path
    d="M344 124l44 44-76 76-48-2 4-46 76-72z"
    fill="#fff3e2"
  />
  <path d="M270 242l44 2-46 42z" fill="#e78c59" />
</svg>
